<?xml version="1.0" standalone="no"?>
<svg viewBox="0 0 200 200" xmlns="http://www.w3.org/2000/svg">
  <path fill="#FF0066" d="M28.8,-46.2C41.9,-36.4,60.1,-36.1,70.9,-27.9C81.8,-19.6,85.2,-3.4,78.2,7.8C71.2,19,53.7,25.2,41.3,31.3C29,37.5,21.8,43.6,11.8,51.6C1.9,59.7,-10.8,69.9,-24.4,71.3C-38.1,72.7,-52.7,65.5,-60.6,53.9C-68.5,42.3,-69.7,26.2,-65.8,13.2C-61.9,0.1,-52.9,-10,-45.6,-18.6C-38.2,-27.3,-32.5,-34.5,-25.2,-46.9C-17.9,-59.3,-8.9,-77,-0.5,-76.1C7.9,-75.3,15.8,-56,28.8,-46.2Z" transform="translate(100 100)" />
</svg>
