<?xml version="1.0" standalone="no"?>
<svg viewBox="0 0 200 200" xmlns="http://www.w3.org/2000/svg">
  <path fill="#FF0066" d="M41.8,-72.1C52.7,-66.1,59.2,-52,58.5,-38.6C57.8,-25.2,50.1,-12.6,48.3,-1C46.5,10.6,50.7,21.1,50,32.2C49.3,43.2,43.8,54.7,34.7,59C25.5,63.3,12.8,60.3,-0.5,61.2C-13.8,62.2,-27.7,67,-41.2,65.3C-54.6,63.5,-67.8,55.1,-69.1,43.1C-70.5,31.1,-60.1,15.6,-53,4.1C-46,-7.4,-42.3,-14.9,-41.6,-27.9C-40.8,-41,-43,-59.6,-36.6,-68.2C-30.1,-76.8,-15.1,-75.4,0.2,-75.7C15.4,-76,30.9,-78.1,41.8,-72.1Z" transform="translate(100 100)" />
</svg>
